# AST/ASF file generated using VICON BodyLanguage
# -----------------------------------------------
:version 1.10
:name VICON
:units
  mass 1.0
  length 0.45
  angle deg
:documentation
   .ast/.asf automatically generated from VICON data using
   VICON BodyBuilder and BodyLanguage model FoxedUp or BRILLIANT.MOD
:root
   order TX TY TZ RX RY RZ
   axis XYZ
   position 0 0 0  
   orientation 0 0 0 
:bonedata
  begin
     id 1 
     name lhipjoint
     direction 0.623529 -0.717805 0.309788 
     length 2.23224 
     axis 0 0 0  XYZ
  end
  begin
     id 2 
     name lfemur
     direction 0.34202 -0.939693 0  
     length 7.11402  
     axis 0 0 20  XYZ
    dof rx ry rz
    limits (-160.0 20.0)
           (-70.0 70.0)
           (-60.0 70.0)
  end
  begin
     id 3 
     name ltibia
     direction 0.34202 -0.939693 0   
     length 6.78496   
     axis 0 0 20   XYZ
    dof rx
    limits (-10.0 170.0)
  end
  begin
     id 4 
     name lfoot
     direction 0.125078 -0.343648 0.930732   
     length 1.84054   
     axis -90 7.62852e-016 20   XYZ
    dof rx rz
    limits (-45.0 90.0)
           (-70.0 20.0)
  end
  begin
     id 5 
     name ltoes
     direction 1.53565e-011 -4.21893e-011 1   
     length 0.916474   
     axis -90 7.62852e-016 20   XYZ
    dof rx
    limits (-90.0 20.0)
  end
  begin
     id 6 
     name rhipjoint
     direction -0.564688 -0.757748 0.327026   
     length 2.11457  
     axis 0 0 0  XYZ 
  end
  begin
     id 7 
     name rfemur
     direction -0.34202 -0.939693 0   
     length 7.14609   
     axis 0 0 -20   XYZ
    dof rx ry rz
    limits (-160.0 20.0)
           (-70.0 70.0)
           (-70.0 60.0)
  end
  begin
     id 8 
     name rtibia
     direction -0.34202 -0.939693 0   
     length 6.78101   
     axis 0 0 -20   XYZ
    dof rx
    limits (-10.0 170.0)
 end
 begin
     id 9 
     name rfoot
     direction -0.0992671 -0.272734 0.956955   
     length 1.96168  
     axis -90 -7.62852e-016 -20   XYZ
    dof rx rz
    limits (-45.0 90.0)
           (-20.0 70.0)
  end
  begin
     id 10 
     name rtoes
     direction -1.5356e-011 -4.21891e-011 1   
     length 0.982933   
     axis -90 -7.62852e-016 -20   XYZ
    dof rx
    limits (-90.0 20.0)
  end
  begin
     id 11 
     name lowerback
     direction -0.00596953 0.998668 0.0512524   
     length 1.87557   
     axis 0 0 0   XYZ
    dof rx ry rz
    limits (-20.0 45.0)
           (-30.0 30.0)
           (-30.0 30.0)
  end
  begin
     id 12 
     name upperback
     direction 0.00584879 0.999652 0.0257308   
     length 1.87883   
     axis 0 0 0   XYZ
    dof rx ry rz
    limits (-20.0 45.0)
           (-30.0 30.0)
           (-30.0 30.0)
  end
  begin
     id 13 
     name thorax
     direction 0.010104 0.999947 0.00178881   
     length 1.87779   
     axis 0 0 0   XYZ
    dof rx ry rz
    limits (-20.0 45.0)
           (-30.0 30.0)
           (-30.0 30.0)
  end
  begin
     id 14 
     name lowerneck
     direction 0.0120771 0.995934 -0.0892773   
     length 1.40897   
     axis 0 0 0   XYZ
    dof rx ry rz
    limits (-20.0 45.0)
           (-30.0 30.0)
           (-30.0 30.0)
  end
  begin
     id 15 
     name upperneck
     direction -0.030568 0.999465 -0.0116366   
     length 1.38661   
     axis 0 0 0   XYZ
    dof rx ry rz
    limits (-20.0 45.0)
           (-30.0 30.0)
           (-30.0 30.0)
  end
  begin
     id 16
     name head
     direction -0.0170715 0.999854 -0.00104426  
     length 1.47052  
     axis 0 0 0   XYZ
    dof rx ry rz
    limits (-20.0 45.0)
           (-30.0 30.0)
           (-30.0 30.0)
  end
  begin
     id 17 
     name lclavicle
     direction 0.977763 0.206143 0.038532  
     length 3.02424  
     axis 0 0 0   XYZ
    dof ry rz
    limits (-20.0 10.0)
           (0.0 20.0)
  end
  begin
     id 18 
     name lhumerus
     direction 1 -4.48965e-011 -2.62654e-027   
     length 4.68382   
     axis 180 -30 -90   XYZ
    dof rx ry rz
    limits (-60.0 90.0)
           (-90.0 90.0)
           (-90.0 90.0)
  end
  begin
     id 19
     name lradius
     direction 1 -4.48973e-011 -1.54954e-027   
     length 2.98124   
     axis 180 -30 -90   XYZ
    dof rx
    limits (-10.0 170.0)
  end
  begin
     id 20
     name lwrist
     direction 1 -4.48959e-011 7.20928e-028   
     length 1.49062   
     axis -5.52449e-016 90 90   XYZ
    dof ry
    limits (-180.0 0.0)
 end
  begin
     id 21 
     name lhand
     direction 1 -4.48971e-011 1.44186e-027   
     length 0.707595   
     axis -9.20027e-016 90 90   XYZ
    dof rx rz
    limits (-90.0 90.0)
           (-45.0 45.0)
  end
  begin
     id 22 
     name lfingers
     direction 1 -4.48985e-011 2.88371e-027   
     length 0.570481   
     axis -1.84005e-015 90 90   XYZ
    dof rx
    limits (0.0 90.0)
  end
  begin
     id 23
     name lthumb
     direction 0.707107 -6.34929e-011 0.707107   
     length 0.819101   
     axis -90 45 2.85299e-015   XYZ
    dof rx rz
    limits (-45.0 45.0)
           (-45.0 45.0)
  end
  begin
     id 24 
     name rclavicle
     direction -0.958661 0.284411 -0.00895327   
     length 3.11921  
     axis 0 0 0   XYZ 
    dof ry rz
    limits (-10.0 20.0)
           (-20.0 0.0)
  end
  begin
     id 25 
     name rhumerus
     direction -1 -4.48963e-011 -4.22193e-027  
     length 4.75876   
     axis 180 30 90   XYZ
    dof rx ry rz
    limits (-90.0 60.0)
           (-90.0 90.0)
           (-90.0 90.0)
  end
  begin
     id 26 
     name rradius
     direction -1 -4.48968e-011 -1.07616e-027   
     length 2.93293   
     axis 180 30 90   XYZ
    dof rx
    limits (-10.0 170.0)
  end
  begin
     id 27 
     name rwrist
     direction -1 -4.48965e-011 7.20928e-028   
     length 1.46647   
     axis -5.52449e-016 -90 -90   XYZ
    dof ry
    limits (-180.0 0.0)
  end
  begin
     id 28
     name rhand
     direction -1 -4.48971e-011 1.44186e-027   
     length 0.831748   
     axis -9.20027e-016 -90 -90   XYZ
    dof rx rz
    limits (-90.0 90.0)
           (-45.0 45.0)
  end
  begin
     id 29
     name rfingers
     direction -1 -4.48961e-011 2.88371e-027   
     length 0.670577   
     axis -1.84005e-015 -90 -90   XYZ
    dof rx
    limits (0.0 90.0)
  end
  begin
     id 30
     name rthumb
     direction -0.707107 -6.34929e-011 0.707107   
     length 0.962818   
     axis -90 -45 -2.85299e-015   XYZ
    dof rx rz
    limits (-45.0 45.0)
           (-45.0 45.0)
  end
:hierarchy
  begin
    root lhipjoint rhipjoint lowerback
    lhipjoint lfemur
    lfemur ltibia
    ltibia lfoot
    lfoot ltoes
    rhipjoint rfemur
    rfemur rtibia
    rtibia rfoot
    rfoot rtoes
    lowerback upperback
    upperback thorax
    thorax lowerneck lclavicle rclavicle
    lowerneck upperneck
    upperneck head
    lclavicle lhumerus
    lhumerus lradius
    lradius lwrist
    lwrist lhand lthumb
    lhand lfingers
    rclavicle rhumerus
    rhumerus rradius
    rradius rwrist
    rwrist rhand rthumb
    rhand rfingers
  end

#!OML:ASF E:\id_vita\Project 1\Capture day 1\Session 1\Female.ASF
:FULLY-SPECIFIED
:DEGREES
279
root 21.6373 16.6305 -4.84989 -161.233 -3.79692 -177.847
lowerback -15.6926 -2.14584 -2.65844
upperback -6.3863 -3.42559 1.33117
thorax 2.22304 -2.05553 2.28661
lowerneck 2.13478 1.05679 -3.47857
upperneck -10.2822 1.9659 3.98426
head -3.82053 1.09138 1.85538
rclavicle 4.12727e-014 1.39149e-014
rhumerus 44.9944 16.4325 -34.9042
rradius 67.0245
rwrist 5.14623
rhand -35.3662 23.669
rfingers 7.12502
rthumb -8.49819 -6.14
lclavicle 4.12727e-014 1.39149e-014
lhumerus 57.2642 -13.0091 30.3349
lradius 47.2225
lwrist -16.6114
lhand -39.1284 32.6437
lfingers 7.12502
lthumb -12.1274 62.2722
rfemur -29.3875 10.4443 24.974
rtibia 23.5607
rfoot -6.83939 -9.07098
rtoes -3.45821
lfemur -26.4736 6.65255 -15.1439
ltibia 60.5989
lfoot -13.2876 -1.3088
ltoes -9.66795
280
root 21.6435 16.6269 -4.91481 -161.171 -3.65989 -177.914
lowerback -15.6866 -2.05512 -2.76357
upperback -6.37979 -3.28792 1.29935
thorax 2.22105 -1.98547 2.33732
lowerneck 1.94625 0.989995 -3.33128
upperneck -10.0692 1.83903 3.64772
head -3.694 1.03338 1.71804
rclavicle -1.59773e-014 2.38542e-015
rhumerus 46.0491 15.6649 -34.6994
rradius 65.7052
rwrist 5.47178
rhand -35.2491 23.8251
rfingers 7.12502
rthumb -8.38513 -5.98846
lclavicle -1.59773e-014 2.38542e-015
lhumerus 58.2185 -12.3374 30.898
lradius 45.8847
lwrist -17.4039
lhand -39.2729 32.0003
lfingers 7.12502
lthumb -12.2668 61.6205
rfemur -29.251 10.3636 24.9954
rtibia 23.7059
rfoot -7.10012 -9.03931
rtoes -3.9524
lfemur -27.2913 6.86429 -15.3326
ltibia 60.6202
lfoot -13.8151 -1.45966
ltoes -9.81831
281
root 21.6485 16.6133 -4.9757 -161.116 -3.59199 -177.881
lowerback -15.6242 -1.98737 -2.6512
upperback -6.39824 -3.216 1.24541
thorax 2.15629 -1.95137 2.2336
lowerneck 2.06482 1.01927 -2.73224
upperneck -10.1191 1.84493 3.02795
head -3.713 1.03476 1.40206
rclavicle -1.25048e-014 1.19271e-015
rhumerus 47.0869 14.9715 -34.7001
rradius 64.428
rwrist 5.80641
rhand -35.2663 23.7658
rfingers 7.12502
rthumb -8.40178 -6.04707
lclavicle -1.25048e-014 1.19271e-015
lhumerus 59.077 -11.7168 31.1151
lradius 44.6507
lwrist -18.0555
lhand -39.2055 32.0638
lfingers 7.12502
lthumb -12.2018 61.6879
rfemur -29.1416 10.2897 25.1363
rtibia 23.8775
rfoot -7.48414 -9.13085
rtoes -3.76454
lfemur -28.1138 6.94664 -15.396
ltibia 60.6298
lfoot -14.3077 -1.36079
ltoes -10.7342
282
root 21.6606 16.608 -5.04082 -161.083 -3.46487 -177.846
lowerback -15.5575 -1.99022 -2.63611
upperback -6.41797 -3.22612 1.24085
thorax 2.0998 -1.95691 2.22204
lowerneck 2.13724 1.08365 -2.71675
upperneck -10.1752 1.93345 3.03065
head -3.7497 1.07758 1.3969
rclavicle 2.92586e-015 -6.36111e-015
rhumerus 48.2255 14.4743 -34.716
rradius 63.3416
rwrist 6.05752
rhand -35.1619 23.1553
rfingers 7.12502
rthumb -8.30107 -6.66156
lclavicle 2.92586e-015 -6.36111e-015
lhumerus 59.6408 -11.0528 31.1921
lradius 43.5763
lwrist -18.6812
lhand -39.2207 32.3312
lfingers 7.12502
lthumb -12.2165 61.9544
rfemur -28.9935 10.3368 25.2702
rtibia 24.075
rfoot -7.9597 -9.28408
rtoes -2.704
lfemur -28.8573 7.06067 -15.4373
ltibia 60.5542
lfoot -14.8462 -1.4498
ltoes -11.455
283
root 21.6715 16.6052 -5.10616 -160.986 -3.365 -177.905
lowerback -15.5719 -1.95713 -2.70028
upperback -6.44041 -3.17782 1.23163
thorax 2.08286 -1.93391 2.25717
lowerneck 1.99129 1.06697 -3.15438
upperneck -10.0525 1.91611 3.34886
head -3.69116 1.07349 1.58243
rclavicle -2.64011e-015 -5.96354e-015
rhumerus 49.2436 13.9116 -34.7311
rradius 62.226
rwrist 6.49734
rhand -34.685 22.961
rfingers 7.12502
rthumb -7.84073 -6.87363
lclavicle -2.64011e-015 -5.96354e-015
lhumerus 60.1767 -10.4612 31.2831
lradius 42.883
lwrist -18.8598
lhand -39.1563 32.5263
lfingers 7.12502
lthumb -12.1544 62.1532
rfemur -28.9334 10.3182 25.2949
rtibia 24.3034
rfoot -8.39069 -9.36481
rtoes -1.67384
lfemur -29.6844 7.07765 -15.5645
ltibia 60.4236
lfoot -15.3133 -1.70317
ltoes -11.4662
284
root 21.6723 16.6017 -5.16669 -160.879 -3.28563 -177.966
lowerback -15.542 -1.86902 -2.6203
upperback -6.46364 -3.07537 1.18467
thorax 2.03057 -1.88508 2.18291
lowerneck 1.77042 1.02707 -3.44076
upperneck -9.84616 1.85754 3.50464
head -3.58188 1.0488 1.68739
rclavicle -3.57191e-015 3.57812e-015
rhumerus 50.1588 13.2629 -34.7843
rradius 61.0431
rwrist 6.93761
rhand -34.313 22.8476
rfingers 7.12502
rthumb -7.4817 -7.00004
lclavicle -3.57191e-015 3.57812e-015
lhumerus 60.7416 -9.94637 31.5593
lradius 42.3685
lwrist -18.8242
lhand -38.8866 33.05
lfingers 7.12502
lthumb -11.8943 62.6922
rfemur -28.8804 10.086 25.3353
rtibia 24.4975
rfoot -8.89349 -9.2603
rtoes -0.523521
lfemur -30.5265 7.01379 -15.6855
ltibia 60.2336
lfoot -15.6416 -2.0301
ltoes -11.0214
285
root 21.6742 16.5953 -5.22718 -160.785 -3.15161 -178.003
lowerback -15.5084 -1.84261 -2.58243
upperback -6.47373 -3.04806 1.17392
thorax 1.99843 -1.8724 2.15678
lowerneck 1.56315 1.07622 -3.71566
upperneck -9.68151 1.92789 3.69971
head -3.49638 1.08708 1.79897
rclavicle 2.76062e-014 -6.36111e-015
rhumerus 51.1835 12.7154 -34.9672
rradius 59.8806
rwrist 7.20481
rhand -34.2687 22.324
rfingers 7.12502
rthumb -7.43897 -7.5252
lclavicle 2.76062e-014 -6.36111e-015
lhumerus 61.1252 -9.33346 32.0396
lradius 41.8487
lwrist -19.0929
lhand -38.3911 33.58
lfingers 7.12502
lthumb -11.4165 63.2492
rfemur -28.8124 9.87339 25.3952
rtibia 24.6853
rfoot -9.42143 -9.17629
rtoes 0.70727
lfemur -31.3146 6.92439 -15.8085
ltibia 60.0123
lfoot -15.9819 -2.17392
ltoes -11.0281
286
root 21.6839 16.586 -5.28768 -160.679 -3.06617 -177.998
lowerback -15.5179 -1.87118 -2.60211
upperback -6.47832 -3.08599 1.19854
thorax 2.00288 -1.89179 2.18675
lowerneck 1.40148 1.16373 -4.04002
upperneck -9.57387 2.05235 3.91657
head -3.44426 1.15368 1.92573
rclavicle -6.21202e-017 1.59028e-015
rhumerus 52.2023 12.2474 -35.277
rradius 58.7903
rwrist 7.43371
rhand -34.1015 21.9989
rfingers 7.12502
rthumb -7.27755 -7.85594
lclavicle -6.21202e-017 1.59028e-015
lhumerus 61.3903 -8.68231 32.4832
lradius 41.4259
lwrist -19.3674
lhand -37.7441 33.6405
lfingers 7.12502
lthumb -10.7924 63.3432
rfemur -28.7457 9.87745 25.476
rtibia 24.8233
rfoot -9.73579 -9.29195
rtoes 1.34589
lfemur -32.08 6.85581 -15.894
ltibia 59.794
lfoot -16.4401 -1.96617
ltoes -12.2734
287
root 21.6883 16.5805 -5.34725 -160.557 -2.99631 -177.979
lowerback -15.5296 -1.84286 -2.60167
upperback -6.5057 -3.05571 1.23157
thorax 1.98 -1.8785 2.22674
lowerneck 1.45111 1.22608 -3.91867
upperneck -9.59314 2.11894 3.70055
head -3.45666 1.18854 1.82863
rclavicle 2.83113e-014 4.77083e-015
rhumerus 53.0095 11.8115 -35.3652
rradius 57.9205
rwrist 7.61916
rhand -34.0201 21.6036
rfingers 7.12502
rthumb -7.19897 -8.25393
lclavicle 2.83113e-014 4.77083e-015
lhumerus 61.7339 -8.1782 32.8527
lradius 41.0285
lwrist -19.4427
lhand -37.3321 34.0286
lfingers 7.12502
lthumb -10.395 63.7516
rfemur -28.6786 9.98747 25.5176
rtibia 24.9219
rfoot -9.97263 -9.46206
rtoes 1.4819
lfemur -32.8631 6.68338 -15.9383
ltibia 59.5685
lfoot -16.8145 -1.9897
ltoes -12.9362
288
root 21.6855 16.5797 -5.40922 -160.476 -2.85958 -177.991
lowerback -15.5086 -1.72045 -2.61477
upperback -6.52867 -2.89606 1.22572
thorax 1.93523 -1.79971 2.25742
lowerneck 1.50533 1.18326 -3.61104
upperneck -9.60638 2.03905 3.34451
head -3.45496 1.14914 1.65636
rclavicle 1.27564e-014 -1.39149e-015
rhumerus 53.5861 11.2778 -35.5183
rradius 57.1012
rwrist 7.8257
rhand -33.9682 21.123
rfingers 7.12502
rthumb -7.14888 -8.73621
lclavicle 1.27564e-014 -1.39149e-015
lhumerus 62.2535 -7.84216 33.4152
lradius 40.5782
lwrist -19.5617
lhand -36.9861 34.1645
lfingers 7.12502
lthumb -10.0612 63.904
rfemur -28.5545 9.91563 25.5415
rtibia 25.0217
rfoot -10.2793 -9.46972
rtoes 1.49495
lfemur -33.6051 6.43559 -15.97
ltibia 59.3138
lfoot -17.07 -2.47291
ltoes -11.6753
289
root 21.6873 16.575 -5.46818 -160.378 -2.75867 -178.002
lowerback -15.4276 -1.552 -2.63757
upperback -6.57714 -2.67599 1.17626
thorax 1.82635 -1.69079 2.26099
lowerneck 1.4202 1.02053 -3.39711
upperneck -9.52802 1.79939 3.03377
head -3.39223 1.03325 1.5221
rclavicle -4.25523e-015 -1.25234e-014
rhumerus 53.9772 10.5895 -36.146
rradius 56.11
rwrist 8.2765
rhand -33.6392 20.6614
rfingers 7.12502
rthumb -6.83133 -9.20835
lclavicle -4.25523e-015 -1.25234e-014
lhumerus 62.796 -7.60234 34.1925
lradius 40.1857
lwrist -19.8317
lhand -36.5032 33.7105
lfingers 7.12502
lthumb -9.59536 63.472
rfemur -28.4732 9.87543 25.5747
rtibia 25.1495
rfoot -10.4566 -9.46929
rtoes 0.813231
lfemur -34.3735 6.20991 -15.9649
ltibia 59.0355
lfoot -17.3901 -2.71704
ltoes -10.9738
